<svg xmlns="http://www.w3.org/2000/svg" viewBox="0 0 48 48"><defs><style>.cls-1{fill:#966557;opacity:0;}.cls-2{fill:#ffd54f;}.cls-3{fill:#be8b7c;}</style></defs><title>0-3</title><g id="图层_2" data-name="图层 2"><g id="图层_1-2" data-name="图层 1"><rect class="cls-1" width="48" height="48"/><path class="cls-2" d="M24.07,37.16a96,96,0,0,1,19.76,2.35,20.11,20.11,0,0,0,.41-4.06A20.62,20.62,0,0,0,23.49,15,20.62,20.62,0,0,0,2.74,35.45a20.12,20.12,0,0,0,.46,4.28A98.86,98.86,0,0,1,24.07,37.16Z"/><path class="cls-3" d="M.42,40.57H47.58a.42.42,0,0,0,.11-.82,104.21,104.21,0,0,0-23.62-3.21A106.17,106.17,0,0,0,.31,39.75.42.42,0,0,0,.42,40.57Z"/><path class="cls-2" d="M28,8a.8.8,0,0,0-1.13,0l-2,2V3a.8.8,0,1,0-1.6,0V10l-2-2A.8.8,0,0,0,20,9.13l3.39,3.4a.81.81,0,0,0,1.14,0L28,9.13A.8.8,0,0,0,28,8Z"/></g></g></svg>