<svg xmlns="http://www.w3.org/2000/svg" viewBox="0 0 48 48"><defs><style>.cls-1{fill:#d3b771;opacity:0;}.cls-2{fill:#ffd54f;}.cls-3{fill:#81d4fa;}.cls-4{fill:#c9eaf2;}</style></defs><title>3-2</title><g id="图层_2" data-name="图层 2"><g id="图层_1-2" data-name="图层 1"><rect class="cls-1" width="48" height="48"/><path class="cls-2" d="M42.27,14.26a7.2,7.2,0,0,1-5.22-9.9c.28-.66-.08-1.18-.79-1.11A9.6,9.6,0,1,0,46.58,15.11a.8.8,0,0,0-1-1A7.14,7.14,0,0,1,42.27,14.26Z"/><path class="cls-3" d="M17.57,45.39h0A1.61,1.61,0,0,1,17,43.2l3.25-5.6A1.6,1.6,0,0,1,22.41,37h0A1.59,1.59,0,0,1,23,39.2l-3.24,5.6A1.61,1.61,0,0,1,17.57,45.39Z"/><path class="cls-3" d="M24.52,45.39h0a1.61,1.61,0,0,1-.59-2.19l3.25-5.6A1.6,1.6,0,0,1,29.36,37h0A1.59,1.59,0,0,1,30,39.2l-3.24,5.6A1.61,1.61,0,0,1,24.52,45.39Z"/><path class="cls-4" d="M36.27,16a10,10,0,0,0-1.9.19,16,16,0,1,0-15.7,19h17.6a9.6,9.6,0,0,0,0-19.2Z"/></g></g></svg>