<svg xmlns="http://www.w3.org/2000/svg" viewBox="0 0 48 48"><defs><style>.cls-1{fill:#d3b771;opacity:0;}.cls-2{fill:#ffd54f;}</style></defs><title>0-2</title><g id="图层_2" data-name="图层 2"><g id="图层_1-2" data-name="图层 1"><rect class="cls-1" width="48" height="48"/><path class="cls-2" d="M31.2,33.53A17.6,17.6,0,0,1,17.78,6.83a.8.8,0,0,0-1-1.15A20,20,0,1,0,43.12,32,.8.8,0,0,0,42,31,17.5,17.5,0,0,1,31.2,33.53Z"/><path class="cls-2" d="M37.68,25.1l-1.1-2.84a.79.79,0,0,0-.44-.44l-2.84-1.1a.77.77,0,0,1,0-1.44l2.84-1.1a.79.79,0,0,0,.44-.44l1.1-2.84a.77.77,0,0,1,1.44,0l1.1,2.84a.79.79,0,0,0,.44.44l2.84,1.1a.77.77,0,0,1,0,1.44l-2.84,1.1a.79.79,0,0,0-.44.44l-1.1,2.84A.77.77,0,0,1,37.68,25.1Z"/><path class="cls-2" d="M26.89,9.39l-.47-1.22A.3.3,0,0,0,26.23,8L25,7.51a.33.33,0,0,1,0-.62l1.22-.47a.3.3,0,0,0,.19-.19L26.89,5a.33.33,0,0,1,.62,0L28,6.23a.3.3,0,0,0,.19.19l1.22.47a.33.33,0,0,1,0,.62L28.17,8a.3.3,0,0,0-.19.19l-.47,1.22A.33.33,0,0,1,26.89,9.39Z"/></g></g></svg>