<svg xmlns="http://www.w3.org/2000/svg" viewBox="0 0 48 48"><defs><style>.cls-1{fill:#d3b771;opacity:0;}.cls-2{fill:#ffd54f;}.cls-3{fill:#c9eaf2;}</style></defs><title>1-2</title><g id="图层_2" data-name="图层 2"><g id="图层_1-2" data-name="图层 1"><rect class="cls-1" width="48" height="48"/><path class="cls-2" d="M41.93,19.91A8.79,8.79,0,0,1,35.46,7a.8.8,0,0,0-.87-1.17A10.39,10.39,0,1,0,45.93,21a.8.8,0,0,0-.87-1.16A8.83,8.83,0,0,1,41.93,19.91Z"/><path class="cls-2" d="M43.69,15.79l-.47-1.22a.3.3,0,0,0-.19-.19l-1.22-.47a.33.33,0,0,1,0-.62L43,12.82a.3.3,0,0,0,.19-.19l.47-1.22a.33.33,0,0,1,.62,0l.47,1.22a.3.3,0,0,0,.19.19l1.22.47a.33.33,0,0,1,0,.62L45,14.38a.3.3,0,0,0-.19.19l-.47,1.22A.33.33,0,0,1,43.69,15.79Z"/><path class="cls-2" d="M23.69,7l-.47-1.22A.3.3,0,0,0,23,5.58l-1.22-.47a.33.33,0,0,1,0-.62L23,4a.3.3,0,0,0,.19-.19l.47-1.22a.33.33,0,0,1,.62,0l.47,1.22A.3.3,0,0,0,25,4l1.22.47a.33.33,0,0,1,0,.62L25,5.58a.3.3,0,0,0-.19.19L24.31,7A.33.33,0,0,1,23.69,7Z"/><path class="cls-3" d="M36.8,21.6A10.35,10.35,0,0,0,34,22,16.8,16.8,0,1,0,17.6,42.4h18a2.58,2.58,0,0,0,.4,0c.27,0,.53,0,.8,0a10.4,10.4,0,1,0,0-20.8Z"/></g></g></svg>