<svg xmlns="http://www.w3.org/2000/svg" viewBox="0 0 48 48"><defs><style>.cls-1{fill:#d3b771;opacity:0;}.cls-2{fill:#c5cfd1;}.cls-3{fill:#81d4fa;}</style></defs><title>06</title><g id="图层_2" data-name="图层 2"><g id="图层_1-2" data-name="图层 1"><rect class="cls-1" width="48" height="48"/><path class="cls-2" d="M36,16a9.77,9.77,0,0,0-1.89.19,16,16,0,1,0-15.71,19H36A9.6,9.6,0,0,0,36,16Z"/><path class="cls-3" d="M16.35,45.39h0a1.61,1.61,0,0,1-.59-2.19L19,37.6A1.61,1.61,0,0,1,21.19,37h0a1.6,1.6,0,0,1,.59,2.18l-3.25,5.6A1.6,1.6,0,0,1,16.35,45.39Z"/><circle class="cls-3" cx="28.51" cy="41.2" r="0.98"/><rect class="cls-3" x="27.53" y="36.8" width="1.96" height="2.93" rx="0.98" ry="0.98"/><rect class="cls-3" x="27.53" y="42.67" width="1.96" height="2.93" rx="0.98" ry="0.98"/><rect class="cls-3" x="24.99" y="38.27" width="1.96" height="2.93" rx="0.98" ry="0.98" transform="translate(-21.42 42.36) rotate(-60)"/><rect class="cls-3" x="30.07" y="41.2" width="1.96" height="2.93" rx="0.98" ry="0.98" transform="translate(-21.42 48.22) rotate(-60)"/><rect class="cls-3" x="24.99" y="41.2" width="1.96" height="2.93" rx="0.98" ry="0.98" transform="translate(2.01 86.49) rotate(-120)"/><rect class="cls-3" x="30.07" y="38.27" width="1.96" height="2.93" rx="0.98" ry="0.98" transform="translate(12.17 86.49) rotate(-120)"/></g></g></svg>