<svg xmlns="http://www.w3.org/2000/svg" viewBox="0 0 48 48"><defs><style>.cls-1{fill:#d3b771;opacity:0;}.cls-2{fill:#ffd54f;}.cls-3{fill:#c9eaf2;}.cls-4{fill:#81d4fa;}</style></defs><title>13</title><g id="图层_2" data-name="图层 2"><g id="图层_1-2" data-name="图层 1"><rect class="cls-1" width="48" height="48"/><circle class="cls-2" cx="36" cy="12.8" r="9.6"/><path class="cls-3" d="M36,16a9.77,9.77,0,0,0-1.89.19,16,16,0,1,0-15.71,19H36A9.6,9.6,0,0,0,36,16Z"/><circle class="cls-4" cx="24" cy="41.2" r="0.98"/><rect class="cls-4" x="23.02" y="36.8" width="1.96" height="2.93" rx="0.98" ry="0.98"/><rect class="cls-4" x="23.02" y="42.67" width="1.96" height="2.93" rx="0.98" ry="0.98"/><rect class="cls-4" x="20.48" y="38.27" width="1.96" height="2.93" rx="0.98" ry="0.98" transform="translate(-23.68 38.45) rotate(-60)"/><rect class="cls-4" x="25.56" y="41.2" width="1.96" height="2.93" rx="0.98" ry="0.98" transform="translate(-23.68 44.32) rotate(-60)"/><rect class="cls-4" x="20.48" y="41.2" width="1.96" height="2.93" rx="0.98" ry="0.98" transform="translate(-4.76 82.58) rotate(-120)"/><rect class="cls-4" x="25.56" y="38.27" width="1.96" height="2.93" rx="0.98" ry="0.98" transform="translate(5.4 82.58) rotate(-120)"/></g></g></svg>