<svg xmlns="http://www.w3.org/2000/svg" viewBox="0 0 48 48"><defs><style>.cls-1{fill:#d3b771;opacity:0;}.cls-2{fill:#81d4fa;}.cls-3{fill:#c5cfd1;}</style></defs><title>09</title><g id="图层_2" data-name="图层 2"><g id="图层_1-2" data-name="图层 1"><rect class="cls-1" width="48" height="48"/><path class="cls-2" d="M17.38,40.7h0a1.61,1.61,0,0,1-.59-2.19l.55-.91A1.6,1.6,0,0,1,19.52,37h0a1.59,1.59,0,0,1,.59,2.18l-.55.91A1.59,1.59,0,0,1,17.38,40.7Z"/><path class="cls-2" d="M14.68,45.39h0a1.61,1.61,0,0,1-.59-2.19l.55-.91a1.61,1.61,0,0,1,2.19-.59h0a1.61,1.61,0,0,1,.58,2.19l-.54.91A1.61,1.61,0,0,1,14.68,45.39Z"/><path class="cls-2" d="M23.35,42.3h0a1.61,1.61,0,0,1-.58-2.19l.54-.91a1.61,1.61,0,0,1,2.19-.58h0a1.6,1.6,0,0,1,.58,2.18l-.54.91A1.6,1.6,0,0,1,23.35,42.3Z"/><path class="cls-2" d="M20.66,47h0a1.6,1.6,0,0,1-.59-2.19l.54-.91a1.61,1.61,0,0,1,2.19-.59h0a1.61,1.61,0,0,1,.59,2.19l-.55.91A1.6,1.6,0,0,1,20.66,47Z"/><path class="cls-2" d="M31.17,40.7h0a1.61,1.61,0,0,1-.58-2.19l.54-.91A1.61,1.61,0,0,1,33.32,37h0a1.6,1.6,0,0,1,.59,2.18l-.55.91A1.6,1.6,0,0,1,31.17,40.7Z"/><path class="cls-2" d="M28.48,45.39h0a1.6,1.6,0,0,1-.59-2.19l.55-.91a1.6,1.6,0,0,1,2.18-.59h0a1.61,1.61,0,0,1,.59,2.19l-.55.91A1.6,1.6,0,0,1,28.48,45.39Z"/><path class="cls-3" d="M36,16a9.77,9.77,0,0,0-1.89.19,16,16,0,1,0-15.71,19H36A9.6,9.6,0,0,0,36,16Z"/></g></g></svg>